<?xml version="1.0" encoding="utf-8"?>
<!-- Generator: Adobe Illustrator 15.0.0, SVG Export Plug-In . SVG Version: 6.00 Build 0)  -->
<!DOCTYPE svg PUBLIC "-//W3C//DTD SVG 1.1//EN" "http://www.w3.org/Graphics/SVG/1.1/DTD/svg11.dtd">
<svg version="1.1" id="Layer_1" xmlns="http://www.w3.org/2000/svg" xmlns:xlink="http://www.w3.org/1999/xlink" x="0px" y="0px"
	 width="800px" height="800px" viewBox="0 0 800 800" enable-background="new 0 0 800 800" xml:space="preserve">
<g>
	<g>
		<path d="M413.377,446.813c-5.106-7.484-15.31-9.416-22.796-4.313c-0.203,0.138-0.454,0.318-0.651,0.466
			c-7.247,5.435-8.716,15.719-3.281,22.966c3.224,4.297,8.148,6.561,13.136,6.561c3.289,0,6.604-0.986,9.476-3.021
			C416.581,464.323,418.435,454.229,413.377,446.813z"/>
	</g>
</g>
<g>
	<g>
		<path d="M466.198,531.756c-4.563-7.823-14.603-10.47-22.436-5.902c-0.023,0.012-0.146,0.087-0.172,0.102
			c-7.804,4.573-10.433,14.603-5.874,22.417c3.049,5.228,8.539,8.141,14.185,8.141c2.805,0,5.651-0.721,8.25-2.237l0.144-0.086
			C468.12,549.627,470.764,539.583,466.198,531.756z"/>
	</g>
</g>
<g>
	<g>
		<path d="M400.002,0C261.269,0,148.405,100.334,148.405,223.661c0,49.815,18.944,98.642,53.366,137.761l181.948,428.586
			c2.568,6.05,8.502,9.982,15.073,9.994c0.01,0,0.019,0,0.026,0c6.563,0,12.497-3.913,15.08-9.947l182.727-426.82
			c0.031-0.034,0.065-0.063,0.096-0.095c35.386-39.402,54.875-88.935,54.875-139.48C651.597,100.334,538.731,0,400.002,0z
			 M400.002,32.808c111.014,0,202.975,72.5,216.945,166.07c-1.691,18.07-16.771,32.341-34.406,32.341
			c-0.208,0-0.419-0.001-0.629-0.005c-18.676-0.359-33.87-15.916-33.87-34.68v-24.753c0-30.733-24.945-56.214-55.604-56.802
			c-15.084-0.301-29.442,5.466-40.389,16.203c-11.067,10.858-17.416,25.945-17.416,41.396v54.345
			c0,9.622-3.969,19.033-10.888,25.822c-6.662,6.538-15.271,10.05-24.345,9.867c-18.677-0.359-33.871-15.916-33.871-34.678v-50.016
			c0-18.375-7.551-36.324-20.72-49.241c-13.005-12.756-30.104-19.626-47.949-19.249c-36.42,0.698-66.05,30.97-66.05,67.479v19.755
			c0,6.695-2.764,13.249-7.583,17.975c-4.606,4.519-10.567,6.94-16.786,6.823c-12.55-0.241-22.794-10.475-23.314-23.012
			C197.31,105.087,289.156,32.808,400.002,32.808z M240.453,368.581h76.276c-19.461,13.1-40.955,23.038-63.784,29.425
			L240.453,368.581z M398.885,741.769l-26.319-61.995c21.034-3.828,41.533-10.214,61.002-19.021L398.885,741.769z M454.695,611.4
			c-28.607,19.488-61.263,32.254-95.318,37.311l-24.582-57.9c26.7-0.87,53.063-5.823,78.653-14.823
			c8.547-3.006,13.036-12.372,10.031-20.917c-3.006-8.547-12.367-13.036-20.919-10.031c-26.5,9.322-53.931,13.685-81.664,13.037
			l-19.402-45.703c21.012-3.126,41.543-8.891,61.274-17.234c8.346-3.527,12.249-13.154,8.719-21.496
			c-3.529-8.343-13.146-12.254-21.495-8.721c-19.82,8.381-40.568,13.771-61.811,16.091l-22.314-52.563
			c38.648-11.508,73.838-31.964,102.943-59.869h88.449c-9.194,16.624-20.491,31.96-33.766,45.776
			c-6.277,6.535-6.066,16.918,0.465,23.194c3.182,3.056,7.275,4.575,11.363,4.575c4.308,0,8.61-1.687,11.832-5.039
			c19.398-20.195,35.129-43.207,46.872-68.505h64.616L454.695,611.4z M577.029,335.773H222.972
			c-21.619-25.874-35.115-55.433-39.837-86.82c6.93,3.256,14.6,5.158,22.675,5.311c0.362,0.006,0.722,0.009,1.086,0.009
			c14.7,0,28.622-5.734,39.305-16.216c11.067-10.857,17.416-25.945,17.416-41.395v-19.755c0-18.762,15.195-34.32,33.869-34.68
			c9.123-0.178,17.683,3.332,24.347,9.867c6.919,6.788,10.888,16.199,10.888,25.822v50.016c0,36.51,29.63,66.78,66.05,67.479
			c0.432,0.008,0.859,0.012,1.289,0.012c17.442,0,33.968-6.811,46.658-19.259c13.169-12.919,20.722-30.866,20.722-49.241v-54.345
			c0-6.695,2.764-13.249,7.583-17.975c4.607-4.517,10.492-6.914,16.786-6.822c12.917,0.249,23.426,11.014,23.426,24v24.751
			c0,36.509,29.63,66.781,66.052,67.48c0.417,0.008,0.828,0.011,1.245,0.011c12.031,0,23.455-3.354,33.367-9.194
			C610.436,284.03,597.294,311.521,577.029,335.773z"/>
	</g>
</g>
</svg>
