<?xml version="1.0" encoding="utf-8"?>
<!-- Generator: Adobe Illustrator 15.0.0, SVG Export Plug-In . SVG Version: 6.00 Build 0)  -->
<!DOCTYPE svg PUBLIC "-//W3C//DTD SVG 1.1//EN" "http://www.w3.org/Graphics/SVG/1.1/DTD/svg11.dtd">
<svg version="1.1" id="Layer_1" xmlns="http://www.w3.org/2000/svg" xmlns:xlink="http://www.w3.org/1999/xlink" x="0px" y="0px"
	 width="597.681px" height="582.5px" viewBox="119.819 81.537 597.681 582.5" enable-background="new 119.819 81.537 597.681 582.5"
	 xml:space="preserve">
<title>wine-and-cheese-ico</title>
<g id="wine-and-cheese-ico">
	<path fill="none" stroke="#000000" stroke-width="20" stroke-linecap="round" stroke-linejoin="round" d="M139.212,217.075
		c-35.737,103.613,34.438,216.937,143.75,224.075c3.962,0.25,7.962,0.388,11.987,0.388c23.39,0.038,46.563-4.479,68.225-13.3
		c77.341-33.387,117.809-119.058,94.476-200L420,91.537H182.5L139.212,217.075z"/>
	<path fill="none" stroke="#000000" stroke-width="20" stroke-linejoin="round" d="M455,218.237
		c-47.572,13.987-92.997,34.445-135,60.8c-84.087,49.05-148.525,35.25-188.925,13.65"/>
	
		<line fill="none" stroke="#000000" stroke-width="20" stroke-linecap="round" stroke-linejoin="round" x1="295" y1="441.537" x2="295" y2="616.537"/>
	<path fill="none" stroke="#000000" stroke-width="20" stroke-linecap="round" stroke-linejoin="round" d="M382.5,654.037h-175
		c0-20.711,16.79-37.5,37.5-37.5h100C365.711,616.537,382.5,633.326,382.5,654.037z"/>
	<line fill="none" stroke="#000000" stroke-width="20" stroke-linejoin="round" x1="432.5" y1="516.537" x2="707.5" y2="516.537"/>
	<path fill="none" stroke="#000000" stroke-width="20" stroke-linecap="round" stroke-linejoin="round" d="M605.4,456.537
		c-8.25,12.661-25.202,16.237-37.863,7.987c-7.77-5.063-12.445-13.715-12.425-22.987c0.029-4.442,1.154-8.81,3.275-12.713
		L495,391.537c-37.482,31.025-60.169,76.398-62.5,125v137.5h275v-137.5L605.4,456.537z"/>
	
		<circle fill="none" stroke="#000000" stroke-width="20" stroke-linecap="round" stroke-linejoin="round" cx="632.5" cy="591.537" r="25"/>
	<circle cx="513.75" cy="572.787" r="14.713"/>
	<path d="M560.825,610.287c0,5.288-4.287,9.575-9.575,9.575s-9.575-4.287-9.575-9.575s4.287-9.575,9.575-9.575l0,0
		C556.538,600.712,560.825,604.999,560.825,610.287z"/>
</g>
</svg>
