<?xml version="1.0" encoding="utf-8"?>
<!-- Generator: Adobe Illustrator 15.0.0, SVG Export Plug-In . SVG Version: 6.00 Build 0)  -->
<!DOCTYPE svg PUBLIC "-//W3C//DTD SVG 1.1//EN" "http://www.w3.org/Graphics/SVG/1.1/DTD/svg11.dtd">
<svg version="1.1" id="Layer_1" xmlns="http://www.w3.org/2000/svg" xmlns:xlink="http://www.w3.org/1999/xlink" x="0px" y="0px"
	 width="800px" height="800px" viewBox="0 0 800 800" enable-background="new 0 0 800 800" xml:space="preserve">
<g>
	<g>
		<path d="M682.844,117.156C607.294,41.606,506.846,0,400,0C293.155,0,192.706,41.606,117.156,117.156
			C41.608,192.706,0,293.156,0,400s41.608,207.294,117.156,282.844c71.472,71.471,165.229,112.542,265.604,116.771
			c0.399,0.038,0.8,0.063,1.198,0.063c0.055,0,0.109-0.011,0.164-0.012C389.398,799.869,394.689,800,400,800
			c106.846,0,207.294-41.607,282.844-117.156C758.393,607.294,800,506.844,800,400S758.393,192.706,682.844,117.156z
			 M599.964,84.719c-18.399,4.464-36.484,9.558-54.026,15.249c-6.971,2.261-10.791,9.745-8.528,16.715
			c1.819,5.611,7.022,9.18,12.619,9.18c1.356,0,2.737-0.209,4.095-0.651c24.146-7.831,49.366-14.5,75.049-19.881
			c38.552,30.05,71.073,67.481,95.428,110.153c-21.633,2.852-42.657,7.35-62.86,13.026c-0.935,0.161-1.858,0.428-2.76,0.8
			c-46.563,13.378-88.68,32.889-123.734,52.598c-0.63,0.289-1.217,0.631-1.779,1.001c-13.609,7.705-26.148,15.425-37.429,22.797
			c-48.979,32.019-82.875,62.539-95.785,74.789c-16.516-5.043-59.903-19.403-111.088-45.201c-7.045-3.552-14.425-7.424-22.034-11.6
			c65.016-92.462,159.829-147.031,229.286-176.813c6.735-2.888,9.853-10.691,6.965-17.425c-2.887-6.734-10.683-9.856-17.425-6.967
			c-73.153,31.367-173.325,89.176-241.947,187.928c-28.57-17.146-59.158-38.369-88.016-63.977
			c8.638-15.345,30.026-49.326,67.88-86.039c47.083-45.661,129.582-104.291,255.667-125.308
			C522.963,44.55,563.592,61.567,599.964,84.719z M400,26.539c0.311,0,0.619,0.011,0.928,0.013
			c-91.922,28.756-155.69,76.158-195.534,114.8c-36.162,35.07-58.229,67.758-69.283,86.419
			c-14.016-13.93-27.369-28.979-39.58-45.189C164.374,88.159,275.122,26.539,400,26.539z M375.442,772.633
			c-134.963-8.807-250.591-89.609-308.749-204.297c75.217,69.589,154.617,104.32,212.409,121.545
			c52.089,15.523,94.295,19.577,116.582,20.56C390.539,731.435,383.904,752.311,375.442,772.633z M286.685,664.447
			C220.417,644.7,124.261,600.732,41.144,503.498C31.644,470.62,26.541,435.896,26.541,400c0-6.164,0.16-12.292,0.457-18.384
			c27.742,27.658,58.587,56.687,93.787,81.226c2.313,1.613,4.958,2.385,7.577,2.385c4.194,0,8.317-1.981,10.897-5.682
			c4.192-6.012,2.716-14.282-3.297-18.473C95.975,413.197,61.164,378.534,30.28,347.28c7.261-51.155,24.903-99.011,50.753-141.342
			c14.928,18.919,31.259,36.25,48.275,52.078c0.67,0.791,1.435,1.514,2.297,2.141c35.669,32.778,74.189,58.959,109.053,79.095
			c0.033,0.022,0.064,0.048,0.097,0.07c0.264,0.173,0.545,0.298,0.815,0.452c12.669,7.291,24.85,13.794,36.219,19.509
			c53.495,26.908,97.864,41.524,115.084,46.728c4.402,19.028,15.781,74.144,17.971,143.328
			c-74.244-7.979-150.756-33.516-222.229-74.279c-6.367-3.633-14.474-1.414-18.1,4.951c-3.633,6.366-1.414,14.471,4.952,18.101
			c75.642,43.142,156.868,69.956,235.725,77.933c-0.18,34.266-2.875,71.048-9.811,108.023
			C382.62,683.508,340.052,680.35,286.685,664.447z M677.115,650.086c-29.269,32.403-64.133,59.65-103.043,80.239
			c10.642-35.839,18.779-74.06,24.237-114.047c0.992-7.261-4.093-13.952-11.352-14.942c-7.263-0.989-13.952,4.092-14.942,11.354
			c-6.463,47.339-16.81,92.014-30.697,132.978c-42.531,17.452-88.965,27.271-137.598,27.749
			c9.165-23.648,16.059-47.807,21.162-71.778c0.342-1.013,0.567-2.073,0.654-3.172c9.711-47.036,12.606-93.213,12.275-133.257
			c0.01-0.09,0.026-0.178,0.034-0.269c0.069-0.904,0.044-1.792-0.063-2.659c-0.163-13.367-0.671-26.041-1.403-37.784
			c-3.784-60.713-13.567-107.218-17.719-124.858c12.292-11.606,45.472-41.43,92.438-72.07c7.298-4.761,15.156-9.677,23.49-14.634
			c33.12,77.942,47.752,159.716,42.343,237.398c-0.51,7.311,5.003,13.649,12.315,14.159c0.313,0.021,0.626,0.033,0.935,0.033
			c6.907,0,12.735-5.352,13.223-12.349c5.766-82.784-9.992-169.797-45.592-252.42c29.162-15.749,62.903-30.981,99.65-42.316
			c8.418,16.557,25.931,54.974,37.732,108.338C709.731,431.489,718.268,533.956,677.115,650.086z M720.867,358.947
			c-11.453-51.283-27.638-89.019-37.308-108.736c17.537-4.297,35.628-7.609,54.142-9.573c22.914,48.364,35.76,102.389,35.76,159.362
			c0,69.025-18.846,133.721-51.628,189.255C741.721,495.828,733.342,414.805,720.867,358.947z"/>
	</g>
</g>
</svg>
