<?xml version="1.0" encoding="utf-8"?>
<!-- Generator: Adobe Illustrator 15.0.0, SVG Export Plug-In . SVG Version: 6.00 Build 0)  -->
<!DOCTYPE svg PUBLIC "-//W3C//DTD SVG 1.1//EN" "http://www.w3.org/Graphics/SVG/1.1/DTD/svg11.dtd">
<svg version="1.1" id="Layer_1" xmlns="http://www.w3.org/2000/svg" xmlns:xlink="http://www.w3.org/1999/xlink" x="0px" y="0px"
	 width="800px" height="800px" viewBox="0 0 800 800" enable-background="new 0 0 800 800" xml:space="preserve">
<g transform="translate(0 -1)">
	<g>
		<path d="M799.998,516.118V374.333h-16.985c-52.061,0-99.381,20.267-134.521,53.332H413.333V214.332h338.872
			c22.542,0,29.524-30.5,9.235-40.32L405.803,2.327c-3.662-1.767-7.931-1.767-11.594,0L38.572,174.005
			c-20.302,9.828-13.319,40.328,9.223,40.328h338.872v213.332H151.509C116.368,394.6,69.05,374.333,16.987,374.333H0.001v141.785
			c0,36.644,27.545,66.825,63.053,71.028L13.733,784.43c-1.786,7.144,2.558,14.383,9.701,16.169
			c7.144,1.786,14.383-2.558,16.169-9.702l47.751-191.002l59.92,191.746c2.197,7.028,9.675,10.945,16.703,8.75
			c7.028-2.197,10.945-9.675,8.75-16.703L111.47,587.665h101.864v-16.986c0-22.042-3.631-43.234-10.33-63.014h116.995v53.333h40
			v106.666c0,58.916-47.75,106.667-106.667,106.667h-26.667c-7.364,0-13.333,5.971-13.333,13.333s5.969,13.333,13.333,13.333h26.667
			h293.331h26.667c7.364,0,13.333-5.971,13.333-13.333s-5.969-13.333-13.333-13.333h-26.667
			c-58.915,0-106.666-47.75-106.666-106.666V560.998h39.999v-53.333h116.995c-6.696,19.778-10.329,40.972-10.329,63.014v16.986
			h89.589L627.059,784.43c-1.786,7.144,2.558,14.383,9.701,16.169c7.145,1.786,14.383-2.558,16.169-9.702l47.751-191.002
			l59.921,191.746c2.196,7.028,9.675,10.945,16.703,8.75c7.027-2.197,10.944-9.675,8.75-16.703l-61.258-196.022h3.649
			C767.967,587.665,799.998,555.637,799.998,516.118z M400.006,29.139l328.382,158.528H71.614L400.006,29.139z M93.395,560.998
			c-0.047,0-0.095,0-0.142,0H71.548c-24.788,0-44.88-20.089-44.88-44.88V401.271c42.19,2.372,80.254,20.163,108.666,47.821
			l1.361,1.354c14.166,14.104,25.795,30.862,34.347,49.456l3.315,7.21c6.791,16.795,10.974,34.923,12.041,53.886H93.395
			L93.395,560.998z M453.333,534.331h-40v133.332c0,43.618,20.938,82.342,53.315,106.667H333.351
			c32.376-24.325,53.315-63.049,53.315-106.667V534.331h-40v-26.667h106.667V534.331z M480,480.998H320H191.701
			c-4.809-9.352-10.354-18.263-16.547-26.667h449.692c-6.192,8.404-11.737,17.314-16.547,26.667H480z M625.645,507.11l3.313-7.208
			c8.552-18.594,20.184-35.353,34.347-49.456l1.356-1.35c28.411-27.661,66.477-45.454,108.67-47.828v114.848
			c0,24.791-20.092,44.88-44.879,44.88h-21.727c-0.047,0-0.096,0-0.143,0h-92.979C614.671,542.034,618.854,523.905,625.645,507.11z"
			/>
	</g>
</g>
</svg>
