<?xml version="1.0" encoding="utf-8"?>
<!-- Generator: Adobe Illustrator 15.0.0, SVG Export Plug-In . SVG Version: 6.00 Build 0)  -->
<!DOCTYPE svg PUBLIC "-//W3C//DTD SVG 1.1//EN" "http://www.w3.org/Graphics/SVG/1.1/DTD/svg11.dtd">
<svg version="1.1" id="Layer_1" xmlns="http://www.w3.org/2000/svg" xmlns:xlink="http://www.w3.org/1999/xlink" x="0px" y="0px"
	 width="293.085px" height="71.139px" viewBox="0 0 293.085 71.139" enable-background="new 0 0 293.085 71.139"
	 xml:space="preserve">
<g>
	<path fill-rule="evenodd" clip-rule="evenodd" fill="#020202" d="M213.45,51.9c0.358,0.907,0.358,2.746,0.669,3.821
		c4.968,18.343,37.282,14.617,50.18,11.297c9.41-2.412,18.08-5.971,24.863-10.938c0.955-0.693,1.624-1.266,2.483-1.982
		c3.75-3.153-0.621-7.811-4.06-5.564c-3.63,2.364-3.63,3.726-10.413,7.236c-29.091,14.999-80.704,7.117-44.233-23.12
		c14.903-12.372,26.654-4.132,15.453-2.125c-2.103,0.382-6.712-0.239-7.763,1.099c-1.672,2.125,0.598,5.015,3.104,5.111
		c16.433,0.645,22.236-8.67,13.327-14.282c-12.132-7.619-28.66,3.129-36.111,12.372c-1.41,1.768-2.365,3.296-4.133,4.825
		c-10.557,9.123-25.245,24.91-39.909,21.925c-9.482-1.911-15.19-8.55-18.295-17.22c-2.651-7.428-1.815-12.158-6.736-11.035
		c-1.862,0.43-2.89,3.367-3.726,5.23c-2.626,5.924-9.529,17.531-13.47,22.284c-8.312,10.056-8.145-4.538-6.09-9.1
		c1.696-3.821,3.797-7.237,6.114-10.008c10.533-12.634,20.349-10.533,22.308-14.187c0.907-1.624,0.979-6.209-5.087-4.562
		c-11.465,3.081-16.671,7.954-24.123,16.074c-3.033,3.296-8.957,8.742-12.539,11.56c-10.342,8.121-21.877,18.08-29.974,3.535
		c-3.726-6.641-5.732-17.316-16.313-15.788c-4.992,0.717-11.13,6.449-14.426,9.673c-0.788,0.765-1.361,1.409-1.911,2.077
		c-2.699,3.13-2.842,0-3.463-2.125c-0.932-3.129-2.866-5.757-4.992-7.667c-7.787-7.093-16.791-3.104-24.195,2.484
		c-1.767,1.338-3.081,2.604-4.585,3.868c-1.17,0.98-4.49,5.326-4.705,2.27l0.597-2.961c0.74-3.487,2.771-9.172,1.313-11.083
		c-1.624-2.125-4.896-1.648-5.899,0.573C6.186,36.662,0.024,63.89,0,65.083c-0.024,2.938,3.535,3.941,5.326,2.771l8.479-9.888
		c3.153-3.439,5.995-6.281,9.22-8.909c8.55-6.974,16.981-9.769,20.206,4.348c1.505,6.52-0.382,10.245,1.958,11.989
		c4.442,3.272,5.971-3.486,11.607-9.648l2.293-2.413c18.367-18.08,13.136-2.483,24.003,9.674
		c10.079,11.296,25.03,1.647,34.512-5.326c0.334-0.239,0.883-0.646,1.266-0.956l1.504-0.979c-0.071,6.64,1.051,12.228,5.613,14.545
		c8.455,4.299,18.963-8.813,23.047-14.976c4.108-6.233,7.094,0.215,8.265,1.815c3.462,4.753,8.86,8.264,14.735,10.318
		c10.963,3.821,21.567-0.741,30.262-6.808c1.934-1.36,3.916-2.866,5.636-4.299L213.45,51.9z"/>
	<path fill-rule="evenodd" clip-rule="evenodd" fill="#020202" d="M195.418,1.29c1.099,6.281-1.003,9.314-5.063,11.631
		c-7.188,4.108-19.346,2.914-11.728,16.647c2.795,5.063,1.267,8.956-5.182,8.503c-2.58-0.167-4.658-0.765-6.879-1.625
		c-2.149-0.812-4.037-2.078-5.78,0.072c-2.771,3.392,2.556,16.265,11.13,20.612c11.346,5.756,21.09-0.478,29.735-7.595
		c4.395-3.63,6.521-4.419,6.233-10.294c-0.119-2.556-1.289-4.538-4.251-3.583c-2.078,0.669-6.997,4.419-13.231,2.27
		c-3.319-1.124-7.261-4.944-8.097-8.551c-0.621-2.604,1.218-4.633,2.508-5.589c4.036-2.938,10.987-2.413,14.187-10.652
		c0.884-2.269,1.003-4.586,0.048-6.95C198.476,4.801,196.875,1.887,195.418,1.29L195.418,1.29z"/>
	<path fill-rule="evenodd" clip-rule="evenodd" fill="#030303" d="M171.462,21.854l0.646-1.792
		c1.505-5.852,6.305-6.854,10.223-8.693C186.725,9.291,192.862,6.21,192.528,0c-1.959,0.525-4.467,2.293-8.551,3.272
		c-3.894,0.932-6.186,1.194-9.362,2.842C168.453,9.291,166.185,15.119,171.462,21.854L171.462,21.854z"/>
</g>
</svg>

